<svg width="78" height="38" viewBox="0 0 78 38" fill="none" xmlns="http://www.w3.org/2000/svg">
<path d="M38 19C38 29.4934 29.4934 38 19 38C8.50659 38 0 29.4934 0 19C0 8.50659 8.50659 0 19 0C29.4934 0 38 8.50659 38 19Z" fill="url(#paint0_linear_9_69)"/>
<path d="M57 19C57 29.4934 48.4934 38 38 38C27.5066 38 19 29.4934 19 19C19 8.50659 27.5066 0 38 0C48.4934 0 57 8.50659 57 19Z" fill="#12121B"/>
<path d="M78 19C78 29.4934 69.4934 38 59 38C48.5066 38 40 29.4934 40 19C40 8.50659 48.5066 0 59 0C69.4934 0 78 8.50659 78 19Z" fill="url(#paint1_linear_9_69)"/>
<path d="M10.3735 7.62891C9.96761 7.00586 10.0951 6.69434 10.7559 6.69434H12.3418C12.7572 6.69434 13.097 6.92562 13.3613 7.38818L16.958 13.5762C17.3545 14.2559 17.6943 14.8506 17.9775 15.3604C18.2607 15.8607 18.5345 16.394 18.7988 16.9604H18.8555C19.1198 16.394 19.3936 15.8607 19.6768 15.3604C19.96 14.8506 20.2998 14.2559 20.6963 13.5762L24.293 7.38818C24.5573 6.92562 24.8971 6.69434 25.3125 6.69434H26.8984C27.5592 6.69434 27.6867 7.00586 27.2808 7.62891L20.1865 18.6455V26.2212C20.1865 26.7404 19.9505 27 19.4785 27H18.1758C17.7038 27 17.4678 26.7404 17.4678 26.2212V18.6455L10.3735 7.62891Z" fill="white"/>
<path d="M30.0845 27C29.6597 27 29.4473 26.7876 29.4473 26.3628V8.69092C29.4473 8.50212 29.4945 8.32275 29.5889 8.15283L30.5801 6.35449C30.7594 6.02409 30.9058 5.85889 31.019 5.85889H31.5146C31.7979 5.85889 31.9395 6.02409 31.9395 6.35449V26.3628C31.9395 26.7876 31.7271 27 31.3022 27H30.0845Z" fill="white"/>
<path d="M35.1538 23.0352C35.1538 21.3548 35.9373 20.1229 37.5044 19.3394C39.0809 18.5558 41.4315 18.098 44.5562 17.9658V17.0029C44.5562 16.1156 44.3532 15.3509 43.9473 14.709C43.5508 14.0576 42.7578 13.7319 41.5684 13.7319C40.8132 13.7319 40.209 13.8075 39.7559 13.9585C39.3027 14.1001 38.8874 14.2936 38.5098 14.5391C38.1416 14.7751 37.7876 15.0819 37.4478 15.4595C37.1929 15.7427 36.9521 15.7568 36.7256 15.502L35.9893 14.6523C35.7816 14.4163 35.8524 14.1331 36.2017 13.8027C36.702 13.3307 37.1882 12.9767 37.6602 12.7407C38.1322 12.5047 38.7174 12.3065 39.416 12.146C40.124 11.9761 40.8415 11.8911 41.5684 11.8911C43.5413 11.8911 44.9479 12.4009 45.7881 13.4204C46.6283 14.4305 47.0483 15.8182 47.0483 17.5835V26.3628C47.0483 26.7876 46.8359 27 46.4111 27H45.1367C44.7686 27 44.5845 26.7876 44.5845 26.3628V25.6689H44.5562C43.8104 26.2542 43.0788 26.6649 42.3613 26.9009C41.6533 27.1274 40.8604 27.2407 39.9824 27.2407C38.4342 27.2407 37.2401 26.8726 36.3999 26.1362C35.5692 25.3905 35.1538 24.3568 35.1538 23.0352ZM37.731 23.0918C37.731 23.6771 37.8537 24.1491 38.0991 24.5078C38.3446 24.8571 38.6844 25.0837 39.1187 25.1875C39.5529 25.2819 40.006 25.3291 40.478 25.3291C41.2049 25.3291 41.894 25.2583 42.5454 25.1167C43.1968 24.9751 43.867 24.6022 44.5562 23.998V19.8208C42.6493 19.9624 41.2899 20.137 40.478 20.3447C39.6662 20.543 39.0054 20.8923 38.4956 21.3926C37.9858 21.8835 37.731 22.4499 37.731 23.0918Z" fill="white"/>
<path d="M51.7212 27C51.2964 27 51.084 26.7876 51.084 26.3628V12.769C51.084 12.3442 51.2964 12.1318 51.7212 12.1318H52.9106C53.3354 12.1318 53.5479 12.3442 53.5479 12.769V13.9019H53.6045C54.2181 13.2222 54.8789 12.7171 55.5869 12.3867C56.2949 12.0563 57.1776 11.8911 58.2349 11.8911C59.953 11.8911 61.1849 12.3773 61.9307 13.3496C62.6859 14.3125 63.0635 15.6341 63.0635 17.3145V26.3628C63.0635 26.7876 62.8511 27 62.4263 27H61.2085C60.7837 27 60.5713 26.7876 60.5713 26.3628V17.9941C60.5713 16.1439 60.2645 14.9733 59.6509 14.4824C59.0373 13.9821 58.2585 13.7319 57.3145 13.7319C56.0872 13.7319 55.1574 14.1001 54.5249 14.8364C53.8924 15.5633 53.5762 16.8141 53.5762 18.5889V26.3628C53.5762 26.7876 53.3638 27 52.939 27H51.7212Z" fill="white"/>
<defs>
<linearGradient id="paint0_linear_9_69" x1="39" y1="0" x2="39" y2="38" gradientUnits="userSpaceOnUse">
<stop stop-color="#212129"/>
<stop offset="1" stop-color="#020024"/>
</linearGradient>
<linearGradient id="paint1_linear_9_69" x1="39" y1="0" x2="39" y2="38" gradientUnits="userSpaceOnUse">
<stop stop-color="#020024"/>
<stop offset="1" stop-color="#212129"/>
</linearGradient>
</defs>
</svg>
